<svg xmlns="http://www.w3.org/2000/svg" viewBox="0 0 800 450" width="800" height="450" fill="none">
  <defs>
    <linearGradient id="bg_vps" x1="0" y1="0" x2="800" y2="450" gradientUnits="userSpaceOnUse">
      <stop offset="0%" stop-color="#091428" />
      <stop offset="50%" stop-color="#0f224a" />
      <stop offset="100%" stop-color="#070c18" />
    </linearGradient>
    <linearGradient id="blue_accent" x1="0" y1="0" x2="1" y2="0">
      <stop offset="0%" stop-color="#2563eb" />
      <stop offset="100%" stop-color="#38bdf8" />
    </linearGradient>
    <linearGradient id="vpsCard" x1="0" y1="0" x2="0" y2="1">
      <stop offset="0%" stop-color="rgba(255,255,255,0.08)" />
      <stop offset="100%" stop-color="rgba(255,255,255,0.02)" />
    </linearGradient>
  </defs>

  <rect width="800" height="450" fill="url(#bg_vps)" />
  <g opacity="0.05" stroke="#ffffff" stroke-width="1">
    <path d="M0 50h800M0 100h800M0 150h800M0 200h800M0 250h800M0 300h800M0 350h800M0 400h800" />
    <path d="M50 0v450M100 0v450M150 0v450M200 0v450M250 0v450M300 0v450M350 0v450M400 0v450M450 0v450M500 0v450M550 0v450M600 0v450M650 0v450M700 0v450M750 0v450" />
  </g>

  <!-- Ambient Glow -->
  <circle cx="700" cy="100" r="160" fill="#2563eb" opacity="0.2" filter="blur(60px)" />

  <!-- Browser Chrome Top -->
  <rect x="24" y="24" width="752" height="402" rx="16" fill="#0c1830" stroke="rgba(255,255,255,0.12)" stroke-width="1" />
  <path d="M24 64h752" stroke="rgba(255,255,255,0.08)" stroke-width="1" />
  <circle cx="44" cy="44" r="5" fill="#f43f5e" />
  <circle cx="60" cy="44" r="5" fill="#fbbf24" />
  <circle cx="76" cy="44" r="5" fill="#10b981" />

  <!-- URL Bar -->
  <rect x="100" y="34" width="380" height="20" rx="6" fill="rgba(255,255,255,0.05)" stroke="rgba(255,255,255,0.08)" stroke-width="1" />
  <text x="114" y="48" fill="#93c5fd" font-family="-apple-system, system-ui, sans-serif" font-size="10" font-weight="500">https://www.vignanschool.com — Excellence in Education</text>

  <!-- Navigation Bar Inside Browser -->
  <text x="44" y="96" fill="#ffffff" font-family="-apple-system, system-ui, sans-serif" font-size="16" font-weight="800">Vignan Public School</text>
  <text x="235" y="95" fill="#93c5fd" font-family="-apple-system, system-ui, sans-serif" font-size="11" font-weight="600">Bengaluru South Campus</text>
  
  <rect x="580" y="80" width="176" height="24" rx="8" fill="url(#blue_accent)" />
  <text x="596" y="96" fill="#ffffff" font-family="-apple-system, system-ui, sans-serif" font-size="10" font-weight="700">Online Admissions Open</text>

  <!-- Hero Banner inside Mockup -->
  <rect x="44" y="116" width="712" height="96" rx="12" fill="url(#vpsCard)" stroke="rgba(255,255,255,0.1)" stroke-width="1" />
  <text x="64" y="148" fill="#ffffff" font-family="-apple-system, system-ui, sans-serif" font-size="18" font-weight="800">Nurturing Tomorrow's Global Leaders</text>
  <text x="64" y="172" fill="#94a3b8" font-family="-apple-system, system-ui, sans-serif" font-size="12" font-weight="400">Holistic ICSE &amp; State Board education with smart interactive laboratories and digital classrooms.</text>

  <!-- Feature Pills -->
  <rect x="64" y="184" width="120" height="18" rx="4" fill="rgba(37,99,235,0.3)" />
  <text x="72" y="196" fill="#bfdbfe" font-family="-apple-system, system-ui, sans-serif" font-size="9" font-weight="700">✓ 10,000+ Active Users</text>
  
  <rect x="194" y="184" width="120" height="18" rx="4" fill="rgba(16,185,129,0.2)" />
  <text x="202" y="196" fill="#a7f3d0" font-family="-apple-system, system-ui, sans-serif" font-size="9" font-weight="700">✓ &lt; 0.8s Sub-Second Load</text>

  <!-- Campus Highlights Grid -->
  <rect x="44" y="226" width="224" height="176" rx="10" fill="url(#vpsCard)" stroke="rgba(255,255,255,0.08)" stroke-width="1" />
  <text x="60" y="254" fill="#38bdf8" font-family="-apple-system, system-ui, sans-serif" font-size="12" font-weight="800">CAMPUS LIFE &amp; LABS</text>
  <text x="60" y="280" fill="#ffffff" font-family="-apple-system, system-ui, sans-serif" font-size="14" font-weight="700">Smart Digital Classrooms</text>
  <text x="60" y="302" fill="#94a3b8" font-family="-apple-system, system-ui, sans-serif" font-size="10">High-fidelity 3D interactive STEM learning deployed in every classroom.</text>
  <rect x="60" y="340" width="120" height="24" rx="6" fill="#2563eb" />
  <text x="76" y="356" fill="#ffffff" font-family="-apple-system, system-ui, sans-serif" font-size="10" font-weight="700">Explore Labs</text>

  <rect x="288" y="226" width="224" height="176" rx="10" fill="url(#vpsCard)" stroke="rgba(255,255,255,0.08)" stroke-width="1" />
  <text x="304" y="254" fill="#38bdf8" font-family="-apple-system, system-ui, sans-serif" font-size="12" font-weight="800">PARENT PORTAL</text>
  <text x="304" y="280" fill="#ffffff" font-family="-apple-system, system-ui, sans-serif" font-size="14" font-weight="700">Attendance &amp; Reports</text>
  <text x="304" y="302" fill="#94a3b8" font-family="-apple-system, system-ui, sans-serif" font-size="10">Instant gradebook tracking, fee payments, and circular notifications.</text>
  <rect x="304" y="340" width="120" height="24" rx="6" fill="rgba(255,255,255,0.1)" stroke="rgba(255,255,255,0.2)" stroke-width="1" />
  <text x="320" y="356" fill="#cbd5e1" font-family="-apple-system, system-ui, sans-serif" font-size="10" font-weight="700">Login Portal</text>

  <rect x="532" y="226" width="224" height="176" rx="10" fill="url(#vpsCard)" stroke="rgba(37,99,235,0.3)" stroke-width="1" />
  <text x="548" y="254" fill="#38bdf8" font-family="-apple-system, system-ui, sans-serif" font-size="12" font-weight="800">MEASURABLE LIFT</text>
  <text x="548" y="284" fill="#ffffff" font-family="-apple-system, system-ui, sans-serif" font-size="24" font-weight="900">+180%</text>
  <text x="548" y="304" fill="#94a3b8" font-family="-apple-system, system-ui, sans-serif" font-size="10">Admission Inquiries Growth</text>
  <text x="548" y="338" fill="#10b981" font-family="-apple-system, system-ui, sans-serif" font-size="14" font-weight="800">100/100 Core Web Vitals</text>
  <text x="548" y="356" fill="#94a3b8" font-family="-apple-system, system-ui, sans-serif" font-size="10">Sub-second performance guarantee</text>
</svg>
